<svg width="525" height="525" viewBox="0 0 525 525" fill="none"
  xmlns="http://www.w3.org/2000/svg">
  <rect width="525" height="525" fill="#F4F4F4"/>
  <path d="M362.747 215.588C362.229 215.037 361.678 214.486 361.127 213.968C360.576 213.449 360.058 212.866 359.507 212.347C358.956 211.829 358.437 211.246 357.887 210.727C357.336 210.209 356.817 209.625 356.266 209.107C355.715 208.588 355.197 208.005 354.646 207.487C354.095 206.968 353.577 206.385 353.026 205.866C352.475 205.348 351.956 204.765 351.406 204.246C367.479 220.043 376.687 241.532 377.038 264.066C377.038 317.761 322.533 361.443 255.519 361.443C217.994 361.443 184.422 347.736 162.095 326.251L163.715 327.871L165.336 329.492L166.956 331.112L168.576 332.732L170.196 334.352L171.817 335.973L173.437 337.593C195.732 359.985 230.049 374.405 268.481 374.405C335.495 374.405 390 330.723 390 277.19C390 254.312 380.149 232.633 362.747 215.588Z" fill="black"/>
  <path d="M368.937 264.066C368.937 313.354 318.158 353.31 255.519 353.31C192.88 353.31 142.101 313.354 142.101 264.066C142.101 233.508 161.544 206.515 191.422 190.507C221.299 174.499 239.9 158.102 255.519 158.102C271.138 158.102 284.489 171.485 319.616 190.507C349.493 206.515 368.937 233.508 368.937 264.066Z" fill="#FBF0DF"/>
  <path d="M368.937 264.066C368.921 257.734 368.049 251.434 366.345 245.336C357.498 353.245 225.869 358.43 174.118 326.154C197.381 344.186 226.089 353.762 255.519 353.31C318.061 353.31 368.937 313.289 368.937 264.066Z" fill="#F6DECE"/>
  <path d="M211.869 184.576C226.354 175.892 245.603 159.592 264.527 159.56C261.616 158.619 258.578 158.127 255.519 158.102C247.677 158.102 239.316 162.152 228.785 168.244C225.123 170.383 221.331 172.749 217.313 175.211C209.763 179.878 201.111 185.16 191.389 190.442C160.54 207.13 142.101 234.642 142.101 264.066C142.101 265.362 142.101 266.659 142.101 267.922C161.739 198.543 197.417 193.261 211.869 184.576Z" fill="#FFFEFC"/>
  <path d="M246.186 166.3C246.278 181.783 239.617 196.538 227.942 206.709C227.035 207.519 227.748 209.074 228.914 208.621C239.835 204.376 254.579 191.673 248.357 166.04C248.098 164.582 246.186 164.971 246.186 166.3ZM253.542 166.3C261.566 179.392 263.472 195.335 258.759 209.949C258.371 211.083 259.764 212.056 260.542 211.116C267.638 202.042 273.828 184.025 255.292 164.582C254.352 163.74 252.894 165.036 253.542 166.17V166.3ZM262.486 165.749C275.049 174.643 283.145 188.542 284.683 203.857C284.615 204.424 285.004 204.944 285.567 205.039C286.129 205.134 286.668 204.771 286.79 204.214C289.771 192.904 288.086 173.623 263.555 163.61C262.259 163.092 261.417 164.841 262.486 165.619V165.749ZM202.666 199.45C217.604 194.987 229.939 184.384 236.594 170.286C237.178 169.119 239.025 169.573 238.733 170.869C233.127 196.793 214.364 202.204 202.699 201.492C201.467 201.524 201.5 199.807 202.666 199.45Z" fill="#CCBEA7"/>
  <path d="M255.519 361.443C188.505 361.443 134 317.761 134 264.066C134 231.661 154.026 201.427 187.566 183.312C197.287 178.128 205.615 172.91 213.036 168.341C217.119 165.814 220.975 163.448 224.702 161.245C236.076 154.504 245.797 150 255.519 150C265.241 150 273.731 153.889 284.359 160.175C287.6 162.022 290.841 164.031 294.308 166.235C302.377 171.225 311.483 176.864 323.472 183.312C357.012 201.427 377.038 231.628 377.038 264.066C377.038 317.761 322.533 361.443 255.519 361.443ZM255.519 158.101C247.677 158.101 239.316 162.152 228.785 168.244C225.123 170.383 221.332 172.748 217.313 175.211C209.763 179.877 201.111 185.159 191.389 190.442C160.54 207.13 142.101 234.642 142.101 264.066C142.101 313.289 192.977 353.342 255.519 353.342C318.061 353.342 368.937 313.289 368.937 264.066C368.937 234.642 350.498 207.13 319.616 190.506C307.367 184.025 297.808 177.933 290.063 173.137C286.531 170.966 283.29 168.957 280.341 167.175C270.523 161.342 263.361 158.101 255.519 158.101Z" fill="black"/>
  <path d="M278.364 287.722C276.909 293.684 273.595 299.029 268.902 302.985C265.379 306.4 260.818 308.544 255.94 309.077C250.916 308.628 246.195 306.479 242.557 302.985C237.912 299.01 234.645 293.667 233.224 287.722C233.129 287.006 233.37 286.287 233.877 285.774C234.384 285.26 235.1 285.01 235.817 285.097H275.804C276.516 285.021 277.222 285.276 277.721 285.788C278.221 286.3 278.458 287.013 278.364 287.722Z" fill="#B71422"/>
  <path d="M242.557 303.244C246.187 306.74 250.891 308.91 255.908 309.401C260.913 308.903 265.604 306.734 269.226 303.244C270.385 302.164 271.468 301.005 272.467 299.777C268.432 295.199 262.687 292.491 256.588 292.291C250.034 292.446 243.976 295.815 240.386 301.3C241.131 301.98 241.779 302.628 242.557 303.244Z" fill="#FF6164"/>
  <path d="M243.075 300.684C246.33 296.477 251.334 293.993 256.653 293.944C261.506 294.087 266.13 296.04 269.615 299.42C270.36 298.61 271.073 297.768 271.754 296.925C267.631 292.999 262.183 290.766 256.491 290.671C250.332 290.724 244.519 293.529 240.645 298.318C241.411 299.151 242.223 299.941 243.075 300.684Z" fill="black"/>
  <path d="M255.81 311.021C250.411 310.548 245.329 308.264 241.39 304.54C236.374 300.298 232.843 294.564 231.312 288.176C231.09 287.024 231.399 285.833 232.155 284.935C233.055 283.848 234.406 283.238 235.817 283.283H275.804C277.212 283.253 278.557 283.86 279.466 284.935C280.214 285.836 280.512 287.029 280.276 288.176C278.745 294.564 275.214 300.298 270.198 304.54C266.268 308.258 261.199 310.541 255.81 311.021ZM235.817 287.041C235.298 287.041 235.168 287.268 235.136 287.333C236.506 292.873 239.604 297.833 243.983 301.494C247.184 304.648 251.347 306.644 255.81 307.165C260.263 306.65 264.421 304.679 267.638 301.559C272.003 297.892 275.089 292.933 276.452 287.398C276.308 287.187 276.058 287.074 275.804 287.106L235.817 287.041Z" fill="black"/>
  <path d="M304.84 289.73C315.309 289.73 323.797 284.739 323.797 278.583C323.797 272.426 315.309 267.436 304.84 267.436C294.37 267.436 285.883 272.426 285.883 278.583C285.883 284.739 294.37 289.73 304.84 289.73Z" fill="#FEBBD0"/>
  <path d="M206.749 289.73C217.219 289.73 225.706 284.739 225.706 278.583C225.706 272.426 217.219 267.436 206.749 267.436C196.28 267.436 187.792 272.426 187.792 278.583C187.792 284.739 196.28 289.73 206.749 289.73Z" fill="#FEBBD0"/>
  <path d="M215.661 274.111C222.885 274.124 229.406 269.782 232.18 263.111C234.954 256.44 233.434 248.755 228.33 243.642C223.226 238.529 215.544 236.995 208.868 239.757C202.192 242.519 197.838 249.031 197.838 256.256C197.838 266.105 205.812 274.093 215.661 274.111ZM295.928 274.111C303.161 274.164 309.712 269.847 312.516 263.179C315.321 256.512 313.825 248.811 308.729 243.677C303.633 238.544 295.943 236.992 289.255 239.748C282.567 242.504 278.202 249.023 278.202 256.256C278.184 266.074 286.11 274.058 295.928 274.111Z" fill="black"/>
  <path d="M210.152 257.391C212.868 257.404 215.324 255.778 216.372 253.272C217.421 250.767 216.855 247.876 214.939 245.951C213.023 244.026 210.136 243.446 207.625 244.482C205.114 245.519 203.477 247.967 203.477 250.683C203.477 254.375 206.46 257.373 210.152 257.391ZM290.419 257.391C293.135 257.404 295.591 255.778 296.64 253.272C297.688 250.767 297.122 247.876 295.206 245.951C293.291 244.026 290.403 243.446 287.892 244.482C285.382 245.519 283.744 247.967 283.744 250.683C283.744 254.35 286.688 257.337 290.355 257.391H290.419Z" fill="white"/>
</svg>
