<svg width="525" height="525" viewBox="0 0 525 525" fill="none"
  xmlns="http://www.w3.org/2000/svg">
  <rect width="525" height="525" fill="#F4F4F4"/>
<g clip-path="url(#clip0_1901_132)">
  <path d="M156.612 303.517L152.098 291.235C152.098 291.235 144.762 299.424 133.762 299.424C124.028 299.424 117.117 290.952 117.117 277.398C117.117 260.032 125.862 253.82 134.467 253.82C146.879 253.82 150.828 261.867 154.214 272.175L158.728 286.294C163.241 299.988 171.704 311.001 196.106 311.001C213.598 311.001 225.446 305.636 225.446 291.518C225.446 280.082 218.956 274.151 206.825 271.327L197.798 269.351C191.593 267.939 189.759 265.397 189.759 261.162C189.759 256.361 193.567 253.537 199.774 253.537C206.544 253.537 210.211 256.079 210.776 262.15L224.881 260.455C223.753 247.748 215.008 242.524 200.62 242.524C187.926 242.524 175.513 247.325 175.513 262.714C175.513 272.315 180.168 278.387 191.874 281.21L201.467 283.469C208.661 285.163 211.058 288.128 211.058 292.223C211.058 297.446 205.98 299.564 196.389 299.564C182.142 299.564 176.219 292.081 172.833 281.774L168.178 267.656C162.255 249.301 152.804 242.524 134.043 242.524C113.309 242.524 102.307 255.655 102.307 277.962C102.307 299.423 113.309 311 133.057 311C148.994 311 156.612 303.517 156.612 303.517Z" fill="white"/>
  <path d="M96.2496 296.881C94.8392 297.305 93.4283 297.587 91.5948 297.587C88.2093 297.587 85.8111 296.035 85.8111 291.939V214.988H71V295.469C71 306.058 78.3356 310.437 86.9394 310.437C89.7607 310.437 92.441 310.012 95.8264 309.166L96.2496 296.881Z" fill="white"/>
  <path d="M274.673 294.622C271.006 297.165 267.903 298.436 263.671 298.436C258.311 298.436 255.349 295.612 255.349 288.693V255.652H274.815V244.075H255.489V228.401L240.538 230.237V244.075H231.086V255.652H240.538V291.798C240.538 304.79 248.013 310.999 260.145 310.999C266.774 310.999 272.699 309.731 277.354 307.048L274.673 294.622Z" fill="white"/>
  <path d="M287.538 299.704C287.538 305.494 292.052 310.153 297.835 310.153C303.902 310.153 308.415 305.494 308.415 299.704C308.415 293.774 303.901 289.258 297.835 289.258C292.052 289.258 287.538 293.774 287.538 299.704Z" fill="white"/>
  <path d="M323.748 255.652V309.306H338.559V255.652H355.204V244.075H338.559V238.145C338.559 229.25 342.368 226.426 348.574 226.426C352.947 226.426 355.909 227.413 359.295 229.25L361.693 216.823C357.744 214.988 353.088 214 347.446 214C335.032 214 323.748 219.93 323.748 237.579V244.075H314.297V255.652H323.748Z" fill="white"/>
  <path d="M414.221 256.924C412.528 246.334 405.617 242.521 396.589 242.521C387.561 242.521 379.804 246.616 376.417 256.64L374.584 244.075H362.594V309.306H377.405V272.455C377.405 259.888 383.894 255.087 390.806 255.087C397.999 255.087 400.962 259.888 400.962 267.653V309.306H415.632V272.314C415.632 259.887 422.261 255.087 429.174 255.087C436.227 255.087 439.188 259.887 439.188 267.653V309.305H453.999V262.431C453.999 248.453 445.818 242.521 434.956 242.521C425.789 242.521 417.607 246.616 414.221 256.924Z" fill="white"/>
</g>
<defs>
  <clipPath id="clip0_1901_132">
    <rect width="383" height="97" fill="white" transform="translate(71 214)"/>
  </clipPath>
</defs>
</svg>
